#!OML:ASF I:\Actors\actors\Patient Classification 2\Patient 1\Session 1\actor1.ASF
:FULLY-SPECIFIED
:DEGREES
107
root -0.610868 18.7405 6.66597 4.2671 0.0266981 0.339158
lowerback 17.8051 -1.50114 8.0555
upperback -0.386817 0.164533 4.30458
thorax -10.4864 -0.214171 0.118477
lowerneck -10.038 -0.148464 2.38314
upperneck 16.421 -0.133388 -2.76313
head 6.64832 -0.148791 -1.29214
rclavicle 1.59028e-014 -1.27222e-014
rhumerus -34.1399 -13.4165 -6.8825
rradius 51.3632
rwrist -8.30092
rhand 21.7492 -48.7728
rfingers 7.12502
rthumb 46.1609 -71.8
lclavicle 1.59028e-014 -1.27222e-014
lhumerus -33.9909 28.2057 12.3107
lradius 46.2946
lwrist 0.180616
lhand 45.0163 -1.33827
lfingers 7.12502
lthumb 66.3993 3.32209
rfemur 7.5722 1.30119 12.9869
rtibia 1.43125e-014
rfoot -19.1272 -12.0576
rtoes -5.74498
lfemur -5.84107 -0.689671 -14.155
ltibia 21.5622
lfoot -18.7524 4.35603
ltoes -56.2549
108
root -0.640958 18.7314 6.67143 3.77834 0.611843 0.354665
lowerback 17.944 -1.64961 7.78142
upperback -0.137485 -0.0675779 4.54127
thorax -10.2972 -0.29246 0.589343
lowerneck -10.0546 -0.197004 2.11218
upperneck 16.3581 -0.150932 -2.78293
head 6.63091 -0.175513 -1.25465
rclavicle -3.18055e-015 3.49861e-014
rhumerus -32.2133 -14.6171 -3.74535
rradius 50.3739
rwrist -7.34911
rhand 22.0348 -48.0936
rfingers 7.12502
rthumb 46.4257 -71.0088
lclavicle -3.18055e-015 3.49861e-014
lhumerus -32.0869 28.2773 10.1632
lradius 45.7149
lwrist 0.0387317
lhand 45.4873 -1.2224
lfingers 7.12502
lthumb 66.7564 2.72902
rfemur 8.35079 0.77494 13.1311
rtibia 7.95139e-015
rfoot -19.3669 -11.7805
rtoes -5.15267
lfemur -5.35592 -0.546937 -13.9531
ltibia 21.5233
lfoot -18.535 3.70927
ltoes -56.5007
109
root -0.657808 18.7276 6.66559 3.49998 0.745813 0.293704
lowerback 18.0993 -1.65621 7.65754
upperback 0.0141721 -0.0738077 4.75899
thorax -10.2152 -0.278049 0.898933
lowerneck -9.96946 -0.258447 1.85716
upperneck 16.2071 -0.183956 -2.83163
head 6.56717 -0.210176 -1.22926
rclavicle -5.56597e-015 1.59028e-015
rhumerus -30.4053 -15.7519 -0.892374
rradius 49.6605
rwrist -6.74623
rhand 22.3535 -48.2834
rfingers 7.12502
rthumb 46.7209 -71.0716
lclavicle -5.56597e-015 1.59028e-015
lhumerus -30.2809 28.5172 8.05738
lradius 45.2012
lwrist -0.261838
lhand 46.0714 -1.27341
lfingers 7.12502
lthumb 67.1938 1.76722
rfemur 8.68833 0.674906 13.2699
rtibia -6.36111e-015
rfoot -19.3577 -11.7354
rtoes -5.28569
lfemur -5.05405 -0.53412 -13.8135
ltibia 21.4645
lfoot -18.461 3.67288
ltoes -56.7152
110
root -0.665517 18.7267 6.6573 3.32805 0.770439 0.279688
lowerback 18.2141 -1.61533 7.61381
upperback 0.0997933 -0.00412226 4.93744
thorax -10.1819 -0.235493 1.10152
lowerneck -9.87513 -0.34184 1.58985
upperneck 16.0683 -0.243076 -2.89395
head 6.50535 -0.258884 -1.20839
rclavicle -1.35174e-014 0
rhumerus -28.6655 -16.3452 1.69783
rradius 49.1881
rwrist -6.79087
rhand 21.8034 -49.1951
rfingers 7.12502
rthumb 46.2112 -72.2012
lclavicle -1.35174e-014 0
lhumerus -28.4383 28.6142 6.10219
lradius 44.7735
lwrist -0.231373
lhand 46.5979 -0.945618
lfingers 7.12502
lthumb 67.5828 1.2428
rfemur 8.86146 0.669561 13.3141
rtibia -2.06736e-014
rfoot -19.3106 -11.754
rtoes -5.67513
lfemur -4.85616 -0.60664 -13.7857
ltibia 21.3935
lfoot -18.4265 3.78082
ltoes -56.7295
111
root -0.669777 18.7253 6.65135 3.15482 0.885 0.378762
lowerback 18.2855 -1.61349 7.55506
upperback 0.188476 -0.000174132 5.06118
thorax -10.123 -0.224385 1.26852
lowerneck -9.83916 -0.414736 1.39109
upperneck 16.0099 -0.29364 -2.98896
head 6.47953 -0.302426 -1.20944
rclavicle 1.39149e-014 -3.97569e-014
rhumerus -26.8946 -16.6437 4.08789
rradius 48.8465
rwrist -6.78162
rhand 21.2731 -49.7455
rfingers 7.12502
rthumb 45.7191 -72.9561
lclavicle 1.39149e-014 -3.97569e-014
lhumerus -26.506 28.7384 4.22505
lradius 44.2797
lwrist 0.0120248
lhand 46.8513 -0.458379
lfingers 7.12502
lthumb 67.768 1.30898
rfemur 9.07021 0.571425 13.2175
rtibia 3.33958e-014
rfoot -19.3398 -11.7006
rtoes -5.64984
lfemur -4.67107 -0.720755 -13.8831
ltibia 21.325
lfoot -18.3783 3.77338
ltoes -56.6347
112
root -0.67535 18.7231 6.64576 2.93972 0.993963 0.513342
lowerback 18.4275 -1.60888 7.49309
upperback 0.28615 0.0115518 5.15906
thorax -10.0935 -0.210748 1.40843
lowerneck -9.83476 -0.487737 1.25953
upperneck 15.9954 -0.348222 -3.12475
head 6.47291 -0.347512 -1.23548
rclavicle 2.62396e-014 -3.02153e-014
rhumerus -25.2026 -16.967 6.32558
rradius 48.5475
rwrist -6.26018
rhand 21.3424 -48.6687
rfingers 7.12502
rthumb 45.7835 -71.8529
lclavicle 2.62396e-014 -3.02153e-014
lhumerus -24.5265 29.1257 2.53301
lradius 43.8337
lwrist 0.008789
lhand 46.6287 -0.136942
lfingers 7.12502
lthumb 67.6053 2.00072
rfemur 9.31467 0.483226 13.0784
rtibia 9.54166e-015
rfoot -19.3834 -11.6428
rtoes -5.52486
lfemur -4.43475 -0.817624 -14.0161
ltibia 21.2495
lfoot -18.3536 3.7601
ltoes -56.6321
113
root -0.683701 18.7186 6.64007 2.64435 1.11517 0.599469
lowerback 18.6926 -1.62223 7.49936
upperback 0.357272 0.0293184 5.23831
thorax -10.1633 -0.200261 1.49284
lowerneck -9.65841 -0.560691 1.2145
upperneck 15.8738 -0.413148 -3.2947
head 6.40153 -0.393282 -1.28562
rclavicle 3.18055e-015 6.36111e-014
rhumerus -23.7899 -17.0776 8.27529
rradius 48.7165
rwrist -5.76104
rhand 21.0484 -47.535
rfingers 7.12502
rthumb 45.5104 -70.8306
lclavicle 3.18055e-015 6.36111e-014
lhumerus -22.5481 29.3724 1.03513
lradius 43.6181
lwrist -0.0495189
lhand 46.0965 0.315498
lfingers 7.12502
lthumb 67.2125 3.31608
rfemur 9.65153 0.394507 13.0065
rtibia 3.18055e-015
rfoot -19.4228 -11.604
rtoes -5.66681
lfemur -4.1115 -0.841522 -14.0734
ltibia 21.1702
lfoot -18.3314 3.66517
ltoes -56.6897
114
root -0.690623 18.7122 6.63498 2.3188 1.22773 0.623449
lowerback 18.9813 -1.67027 7.58297
upperback 0.416207 0.0237027 5.32883
thorax -10.2609 -0.204855 1.55439
lowerneck -9.3879 -0.590518 1.18265
upperneck 15.7087 -0.422051 -3.47007
head 6.3013 -0.410349 -1.33386
rclavicle -1.43125e-014 -2.22639e-014
rhumerus -22.7809 -17.1454 9.98787
rradius 49.6725
rwrist -5.18486
rhand 21.0935 -47.3098
rfingers 7.12502
rthumb 45.5523 -70.5884
lclavicle -1.43125e-014 -2.22639e-014
lhumerus -20.7021 29.5716 -0.405644
lradius 43.4666
lwrist -0.216852
lhand 45.6401 0.496794
lfingers 7.12502
lthumb 66.8715 4.21329
rfemur 10.0271 0.32078 13.0006
rtibia -2.22639e-014
rfoot -19.4508 -11.5547
rtoes -5.66899
lfemur -3.75121 -0.858758 -14.0649
ltibia 21.0972
lfoot -18.3139 3.53436
ltoes -56.6662
